<svg t="1715675951687" class="icon" viewBox="0 0 1024 1024" version="1.1" xmlns="http://www.w3.org/2000/svg" p-id="6204" ><path d="M778.966 128.76L395.9 511.823l388.097 388.096-0.07 0.034c12.71 13.137 20.53 31.024 20.53 50.731 0 40.377-32.737 73.112-73.116 73.112-19.706 0-37.591-7.819-50.73-20.528l-0.035 0.036L241.89 564.622l0.035-0.035c-13.78-13.282-22.383-31.916-22.383-52.586v-0.178-0.144c0-20.67 8.604-39.341 22.383-52.623l-0.035-0.035L680.574 20.337l0.18 0.18C693.894 7.95 711.704 0.202 731.34 0.202c40.379 0 73.115 32.736 73.115 73.114 0 22.169-9.889 42.018-25.49 55.443z" p-id="6205" ></path></svg>