<svg t="1713365815699" class="icon" viewBox="0 0 1024 1024" version="1.1" xmlns="http://www.w3.org/2000/svg" p-id="23904"><path d="M838.656 138.688c12.352 0 24.064 4.864 32.896 13.76a46.464 46.464 0 0 1 13.76 32.896v653.312a46.464 46.464 0 0 1-13.76 32.896 46.464 46.464 0 0 1-32.896 13.76H185.344a46.464 46.464 0 0 1-32.896-13.76 46.464 46.464 0 0 1-13.76-32.896V185.344c0-12.352 4.864-24.064 13.76-32.896a46.464 46.464 0 0 1 32.896-13.76h653.312M855.04 64H169.024C111.232 64 64 111.232 64 168.96v686.08c0 57.728 47.232 104.96 104.96 104.96h686.08c57.728 0 104.96-47.232 104.96-104.96V168.96C960 111.296 912.768 64 855.04 64z" fill="#D3D3D3" p-id="23905"></path><path d="M320 512h384v64H320z" fill="#FEA500" p-id="23906"></path></svg>