<svg t="1716435598613" class="icon" viewBox="0 0 1024 1024" version="1.1" xmlns="http://www.w3.org/2000/svg" p-id="6389"><path d="M132.647 773.199c-176.837-176.877-176.837-463.675 0-640.552 176.877-176.837 463.675-176.837 640.552 0 176.837 176.877 176.837 463.675 0 640.552-176.877 176.837-463.675 176.837-640.552 0z m55.69-55.69A374.154 374.154 0 1 0 717.51 188.337 374.154 374.154 0 0 0 188.337 717.51z" p-id="6390" fill="#B0B0B0"></path><path d="M727.216 727.215q27.849-27.848 55.698 0l222.793 222.794q27.85 27.85 0 55.698-27.849 27.85-55.698 0L727.216 782.914q-27.85-27.849 0-55.698zM633.941 271.901q13.925 13.925 0 27.85L299.751 633.94q-13.924 13.924-27.848 0-13.925-13.925 0-27.85l334.19-334.189q13.924-13.924 27.848 0z" p-id="6391" fill="#B0B0B0"></path><path d="M633.941 633.94q-13.924 13.924-27.849 0l-334.19-334.19q-13.924-13.924 0-27.849 13.925-13.924 27.85 0l334.19 334.19q13.924 13.924 0 27.849z" p-id="6392" fill="#B0B0B0"></path></svg>