<svg t="1715227813552" class="icon" viewBox="0 0 1024 1024" version="1.1" xmlns="http://www.w3.org/2000/svg" p-id="85415" ><path d="M132.6 177.6h114.3C257.4 235.7 308.3 280 369.4 280s112-44.3 122.5-102.4h459.9c12.1 0 21.9-9.8 21.9-22s-9.8-22-22-22H491.9C481.4 75.5 430.5 31.2 369.4 31.2s-112 44.3-122.5 102.4H132.6c-12.2 0-22 9.8-22 22s9.8 22 22 22zM369.4 75.2c44.3 0 80.4 36.1 80.4 80.4S413.7 236 369.4 236 289 199.9 289 155.6c0-44.3 36.1-80.4 80.4-80.4zM132.6 523.1h440.7c10.4 58.1 61.4 102.4 122.5 102.4s112-44.3 122.5-102.4h133.5c12.1 0 22-9.8 21.9-22 0-12.2-9.8-22-22-22H818.3c-10.4-58.1-61.4-102.4-122.5-102.4s-112 44.3-122.5 102.4H132.6c-12.2 0-22 9.8-22 22s9.8 22 22 22z m563.2-102.4c44.3 0 80.4 36.1 80.4 80.4 0 44.3-36.1 80.4-80.4 80.4s-80.4-36.1-80.4-80.4c0-44.3 36.1-80.4 80.4-80.4zM951.8 824.7H613.5C603 766.6 552.1 722.3 491 722.3s-112 44.3-122.5 102.4H132.6c-12.2 0-22 9.8-22 22s9.8 22 22 22h235.9C379 926.8 429.9 971.1 491 971.1s112-44.3 122.5-102.4h338.3c12.1 0 22-9.8 22-22s-9.8-22-22-22zM491 927.1c-42.7 0-77.7-33.5-80.2-75.6 0.3-1.6 0.5-3.2 0.5-4.8 0-1.7-0.2-3.3-0.5-4.9 2.5-42 37.6-75.5 80.2-75.5 44.3 0 80.4 36.1 80.4 80.4s-36.1 80.4-80.4 80.4z" p-id="85416" fill="#E4E4E4"></path></svg>