<svg t="1714624428050" class="icon" viewBox="0 0 1024 1024" version="1.1" xmlns="http://www.w3.org/2000/svg" p-id="60185"><path d="M936.850773 87.149227l-65.36192 0 0 108.936533c0 137.229653-63.51872 260.473173-172.581547 327.299413 109.067947 66.778453 172.581547 189.057707 172.581547 326.3232l0 87.149227 65.36192 0c22.340267 0 42.999467 15.56992 42.999467 44.934827 0 23.289173-18.131627 42.20416-40.471893 42.20416l-6.951253 0L90.989227 1023.996587l-6.95296 0c-22.335147 0-40.459947-18.914987-40.459947-42.216107 0-23.289173 15.82592-44.92288 43.564373-44.92288l65.36192 0 0-87.149227c0-137.260373 67.746133-259.539627 176.80896-326.341973C220.24704 456.541867 152.500907 333.310293 152.500907 196.087467l0-108.936533L87.138987 87.150933c-22.347093 0-43.001173-21.63712-43.001173-44.945067C44.137813 18.914987 64.791893 0 87.138987 0l4.41344 0.006827 841.43616 0 6.95808 0c22.32832 0 40.47872 20.271787 40.47872 43.567787C980.425387 66.87744 959.179093 87.149227 936.850773 87.149227zM784.33792 87.149227 239.65184 87.149227l0 108.936533c0 135.447893 71.79776 253.305173 197.79584 286.349653 5.22752 1.37728 9.96352 3.75808 14.057813 6.898347 0.06144 0.042667 0.121173 0.083627 0.175787 0.13312 0.334507 0.249173 0.65024 0.51712 0.965973 0.769707 0.242347 0.19968 0.4864 0.39936 0.723627 0.600747 0.139947 0.121173 0.278187 0.249173 0.42496 0.375467 6.212267 5.4784 10.912427 12.967253 13.06624 21.858987 2.290347 9.4976 1.29536 19.04128-2.2272 27.344213-0.037547 0.083627-0.073387 0.16896-0.109227 0.254293-0.18944 0.42496-0.372053 0.86016-0.57856 1.278293-0.095573 0.211627-0.197973 0.416427-0.30208 0.631467-0.150187 0.314027-0.308907 0.62976-0.474453 0.943787-0.19456 0.377173-0.392533 0.745813-0.600747 1.11616-0.09728 0.16384-0.175787 0.308907-0.26112 0.46592-0.657067 1.133227-1.355093 2.235733-2.102613 3.283627-0.018773 0.0256-0.03584 0.047787-0.047787 0.073387-0.360107 0.494933-0.7168 0.981333-1.093973 1.466027-0.052907 0.073387-0.114347 0.146773-0.175787 0.218453-0.339627 0.431787-0.68096 0.856747-1.032533 1.266347-0.078507 0.09216-0.15872 0.182613-0.237227 0.26624-0.351573 0.41472-0.709973 0.802133-1.073493 1.194667-0.080213 0.080213-0.151893 0.15872-0.22528 0.242347-0.418133 0.436907-0.8448 0.87552-1.281707 1.29024-0.0256 0.018773-0.03584 0.03072-0.054613 0.054613-0.954027 0.909653-1.937067 1.762987-2.962773 2.57024-0.049493 0.037547-0.110933 0.080213-0.15872 0.116053-0.474453 0.36864-0.9472 0.725333-1.431893 1.071787-0.042667 0.03072-0.09728 0.06656-0.139947 0.09728-4.317867 3.0464-9.193813 5.236053-14.354773 6.362453-125.228373 33.59744-196.283733 150.089387-196.283733 285.028693l0 87.149227 544.68608 0 0-87.149227c0-135.471787-72.301227-252.363093-198.26688-285.37344-0.657067-0.170667-1.307307-0.351573-1.943893-0.564907-0.187733-0.054613-0.3584-0.119467-0.541013-0.182613-0.377173-0.126293-0.75776-0.254293-1.134933-0.392533-0.334507-0.114347-0.65536-0.242347-0.97792-0.375467-0.19456-0.073387-0.38912-0.151893-0.576853-0.2304-5.082453-2.10432-9.570987-5.20192-13.310293-9.024853-0.06144-0.059733-0.121173-0.121173-0.182613-0.180907-0.274773-0.28672-0.541013-0.570027-0.80896-0.868693-0.175787-0.19456-0.351573-0.380587-0.52736-0.580267-0.19456-0.223573-0.384-0.448853-0.57856-0.679253-0.254293-0.298667-0.510293-0.607573-0.75264-0.914773-0.121173-0.151893-0.242347-0.29696-0.356693-0.448853-0.360107-0.467627-0.709973-0.940373-1.063253-1.42336 0-0.013653-0.006827-0.018773-0.018773-0.032427-1.5104-2.143573-2.848427-4.447573-3.964587-6.913707-0.013653-0.017067-0.018773-0.03584-0.03072-0.06144-0.256-0.5632-0.498347-1.13152-0.730453-1.72032-0.029013-0.06144-0.06144-0.121173-0.083627-0.180907-0.213333-0.546133-0.41472-1.092267-0.607573-1.64352-0.03072-0.085333-0.059733-0.16896-0.09728-0.26112-0.187733-0.544427-0.36352-1.102507-0.53248-1.660587-0.018773-0.073387-0.049493-0.151893-0.073387-0.2304-0.19968-0.6912-0.395947-1.380693-0.570027-2.08896-0.116053-0.479573-0.19968-0.95744-0.305493-1.437013-0.029013-0.139947-0.059733-0.28672-0.095573-0.41984-0.09728-0.544427-0.187733-1.076907-0.273067-1.616213-0.0256-0.146773-0.049493-0.278187-0.073387-0.418133-0.09216-0.607573-0.15872-1.199787-0.22528-1.805653 0-0.073387-0.018773-0.139947-0.0256-0.211627-2.095787-20.580693 10.584747-40.12544 30.368427-45.28128 126.040747-33.09568 198.35904-150.951253 198.35904-286.399147L784.336213 87.149227zM569.378133 419.264853c-23.543467 6.13888-43.501227 20.282027-57.511253 38.97856-4.36224-5.807787-9.325227-11.185493-14.846293-16.052907l-2.884267-2.440533-2.266453-2.04288-2.633387-1.7664c-10.600107-7.739733-22.41536-13.356373-35.13856-16.708267-65.25952-17.11616-113.711787-67.45088-135.790933-135.995733l387.3024 0C683.441493 351.735467 634.821973 402.080427 569.378133 419.264853zM490.514773 664.43776c0 0 3.74272-3.053227 3.862187-3.141973l0.518827-0.370347 2.42688-2.029227 0.397653-0.380587c1.708373-1.493333 3.360427-3.06176 4.97152-4.727467l2.14528-2.245973 2.92864-3.423573 2.955947-3.766613c0 0 0.991573-1.467733 1.037653-1.54112l5.993813 9.146027 2.624853 1.41312 0.785067 0.70656c7.488853 7.652693 16.10752 13.67552 25.663147 17.913173 0 0 2.752853 1.175893 3.606187 1.501867 0.489813 0.18944 3.080533 1.122987 3.080533 1.122987 1.419947 0.489813 2.853547 0.933547 4.30592 1.3312 72.97024 20.512427 117.584213 80.933547 117.584213 177.006933l0 18.546347L348.588373 871.499093l0-18.546347c0-95.320747 43.78112-155.46368 115.67104-176.607573 8.715947-2.228907 16.96768-5.932373 24.599893-11.031893L490.514773 664.43776z" p-id="60186" fill="#ffffff"></path></svg>