<svg t="1715645423462" class="icon" viewBox="0 0 1024 1024" version="1.1" xmlns="http://www.w3.org/2000/svg" p-id="102015" ><path d="M513.81248 8.5504c-276.72064 0-500.98688 224.26624-500.98688 500.98176 0 276.72064 224.26624 500.992 500.98688 500.992 276.71552 0 500.98176-224.27136 500.98176-500.992 0.10752-276.71552-224.27136-500.98176-500.98176-500.98176z m0 925.33248c-237.15328 0-424.36096-187.0848-424.36096-424.35584 0-237.15328 187.08992-424.35584 424.36096-424.35584 237.14816 0 424.35584 187.09504 424.35584 424.35584-0.00512 237.16352-187.08992 424.35584-424.35584 424.35584z"  p-id="102016"></path><path d="M513.81248 223.28832c-158.14144 0-286.24384 128.21504-286.24384 286.23872 0 158.14656 128.21504 286.24384 286.24384 286.24384 158.13632 0 286.24384-128.21504 286.24384-286.24384 0.10752-158.1312-128.11264-286.23872-286.24384-286.23872z m0 495.86688c-118.5792 0-209.61792-91.04384-209.61792-209.62304 0-118.56896 91.04384-209.61792 209.61792-209.61792 118.5792 0 209.61792 91.04896 209.61792 209.61792 0 118.5792-91.03872 209.62304-209.61792 209.62304z"  p-id="102017"></path></svg>