<svg t="1715229644191" class="icon" viewBox="0 0 1024 1024" version="1.1" xmlns="http://www.w3.org/2000/svg" p-id="98841" id="mx_n_1715229644193"><path d="M899.0496827 953.45481113H127.71199895c-33.00209567 0-55.09554883-22.09345317-55.09554885-55.23363292V180.32203431c0-33.14017975 22.09345317-55.23363292 55.09554885-55.23363292h110.19109768c0-33.14017975 22.09345317-55.23363292 55.09554884-55.23363293s55.09554883 22.09345317 55.09554884 55.23363293h330.43520894c0-33.14017975 22.09345317-55.23363292 55.09554885-55.23363293s55.09554883 22.09345317 55.09554884 55.23363293h110.19109767c33.00209567 0 55.09554883 22.09345317 55.09554886 55.23363292v717.8991439c0.13808409 33.14017975-21.95536909 55.23363292-54.95746477 55.23363292z m0-607.43187806H127.71199895v-55.23363292h771.19959966v-110.46726584H127.71199895v717.8991439h771.19959966V346.02293307z m-606.05103723 110.46726584c33.00209567 0 55.09554883 22.09345317 55.09554884 55.23363293s-22.09345317 55.23363292-55.09554884 55.23363291c-33.14017975 0-55.09554883-22.09345317-55.09554884-55.23363291s22.09345317-55.23363292 55.09554884-55.23363293z m0 220.93453169c33.00209567 0 55.09554883 22.09345317 55.09554884 55.23363293s-22.09345317 55.23363292-55.09554884 55.23363292c-33.14017975 0-55.09554883-22.09345317-55.09554884-55.23363292 0-33.27826384 22.09345317-55.23363292 55.09554884-55.23363293z m220.38219535-220.93453169c33.14017975 0 55.09554883 22.09345317 55.09554884 55.23363293s-22.09345317 55.23363292-55.09554884 55.23363291-55.09554883-22.09345317-55.09554883-55.23363291 22.09345317-55.23363292 55.09554883-55.23363293z m0 220.93453169c33.14017975 0 55.09554883 22.09345317 55.09554884 55.23363293s-22.09345317 55.23363292-55.09554884 55.23363292-55.09554883-22.09345317-55.09554883-55.23363292c0-33.27826384 22.09345317-55.23363292 55.09554883-55.23363293z m220.38219536-220.93453169c33.00209567 0 55.09554883 22.09345317 55.09554885 55.23363293s-22.09345317 55.23363292-55.09554885 55.23363291-55.09554883-22.09345317-55.09554883-55.23363291 21.95536909-55.23363292 55.09554883-55.23363293z" p-id="98842"></path></svg>