<svg t="1716435930157" class="icon" viewBox="0 0 1024 1024" version="1.1" xmlns="http://www.w3.org/2000/svg" p-id="9891"><path d="M930 356.2c-21-52.5-51.7-99.3-91.2-139.1-38.1-38.5-82.8-68.8-132.8-90.2-50-21.4-102.8-32.8-157-33.8-56.1-1.1-111.1 9-163.6 30.1-61.8 24.8-117.3 64.3-160.6 114.2-29.1 33.6-52.8 72-70.1 113.2l-21.9-64c-5.7-16.7-23.9-25.6-40.6-19.9-16.7 5.7-25.6 23.9-19.9 40.6l43.4 126.8c5.8 17.1 21.9 27.8 39 27.8 4.4 0 8.9-0.7 13.3-2.2l126.8-43.4c16.7-5.7 25.6-23.9 19.9-40.6-5.7-16.7-23.9-25.6-40.6-19.9l-60.8 20.8c36.4-87.6 107.1-158.4 196-194 88-35.3 184.5-34.1 271.6 3.2C767.9 223 835.3 292 870.5 380c72.8 181.7-15.8 388.6-197.4 461.4-181.7 72.8-388.7-15.8-461.4-197.4-3.4-8.4-6.4-17-9.2-25.6-5.3-16.9-23.3-26.2-40.1-20.9-16.9 5.3-26.2 23.3-20.9 40.1 3.2 10.1 6.8 20.3 10.8 30.2 21 52.5 51.7 99.3 91.2 139.1 38.1 38.5 82.8 68.8 132.8 90.2 50 21.4 102.8 32.8 157 33.8 2.7 0.1 5.4 0.1 8 0.1 53.3 0 105.6-10.1 155.6-30.2 52.5-21 99.3-51.7 139.1-91.2 38.5-38.1 68.8-82.8 90.2-132.8 21.4-50 32.8-102.8 33.8-157 1.1-56.1-9-111.1-30-163.6z" fill="#4697B6" p-id="9892"></path></svg>