<svg t="1715218946562" class="icon" viewBox="0 0 1024 1024" version="1.1" xmlns="http://www.w3.org/2000/svg" p-id="82063"><path d="M496 416C380.8 416 288 508.8 288 624s92.8 208 208 208 208-92.8 208-208-92.8-208-208-208z m0 352C416 768 352 704 352 624s64-144 144-144 144 64 144 144-64 144-144 144z m6.4-240h-64v156.8h9.6l105.6 38.4 22.4-60.8-76.8-28.8v-105.6z m-6.4-112C380.8 416 288 508.8 288 624s92.8 208 208 208 208-92.8 208-208-92.8-208-208-208z m0 352C416 768 352 704 352 624s64-144 144-144 144 64 144 144-64 144-144 144z m6.4-240h-64v156.8h9.6l105.6 38.4 22.4-60.8-76.8-28.8v-105.6zM588.8 64H224C169.6 64 128 105.6 128 160v704c0 54.4 41.6 96 96 96h576c54.4 0 96-41.6 96-96V348.8L588.8 64z m12.8 99.2l172.8 163.2h-147.2c-12.8 0-22.4-12.8-25.6-25.6V163.2zM832 864c0 16-16 32-32 32H224c-16 0-32-16-32-32V160c0-16 16-32 32-32h320v176c3.2 44.8 38.4 80 83.2 80H832v480zM288 624c0 115.2 92.8 208 208 208s208-92.8 208-208-92.8-208-208-208S288 508.8 288 624z m352 0c0 80-64 144-144 144S352 704 352 624s64-144 144-144 144 64 144 144z m-201.6-96v156.8h9.6l105.6 38.4 22.4-60.8-76.8-28.8v-108.8h-60.8z" p-id="82064" fill="#D3D3D3"></path></svg>